# Aspose.3D Wavefront OBJ Exporter
# Copyright 2004-2024 Aspose Pty Ltd.
# File created: 03/05/2024 15:32:42

g obj_973124

#
# object obj_973124
#

v 10 1.6845294E-15 27.510452
v 0 1.6845294E-15 27.510452
v 10 1.8773797 27.44632
v 0 1.8773797 27.44632
v 0 3.746006 27.25422
v 10 3.746006 27.25422
v 0 5.597167 26.935045
v 10 5.597167 26.935045
v 0 7.422231 26.49029
v 10 7.422231 26.49029
v 0 9.212689 25.922024
v 10 9.212689 25.922024
v 0 10.960194 25.232897
v 10 10.960194 25.232897
v 0 12.656597 24.426125
v 10 12.656597 24.426125
v 0 14.293989 23.505465
v 10 14.293989 23.505465
v 0 15.864737 22.47521
v 10 15.864737 22.47521
v 0 17.361515 21.340168
v 10 17.361515 21.340168
v 0 18.777346 20.105627
v 10 18.777346 20.105627
v 0 20.105627 18.777346
v 10 20.105627 18.777346
v 0 21.340168 17.361515
v 10 21.340168 17.361515
v 0 22.47521 15.864737
v 10 22.47521 15.864737
v 0 23.505465 14.293989
v 10 23.505465 14.293989
v 0 24.426125 12.656597
v 10 24.426125 12.656597
v 0 25.232897 10.960194
v 10 25.232897 10.960194
v 0 25.922024 9.212689
v 10 25.922024 9.212689
v 0 26.49029 7.422231
v 10 26.49029 7.422231
v 0 26.935045 5.597167
v 10 26.935045 5.597167
v 0 27.25422 3.746006
v 10 27.25422 3.746006
v 0 27.44632 1.8773797
v 10 27.44632 1.8773797
v 10 27.510452 0
v 0 27.510452 0
v 0 0 50
v 10 0 50
v 0 50 50
v 10 50 50
v 0 50 0
v 10 50 0
v 0 0 0
v 10 0 0
v 10 -1.9333297 27.442434
v 0 -1.9333297 27.442434
v 10 -3.8570995 27.238718
v 0 -3.8570995 27.238718
v 10 -5.7617965 26.90031
v 0 -5.7617965 26.90031
v 10 -7.638002 26.428885
v 0 -7.638002 26.428885
v 10 -9.4764385 25.82677
v 0 -9.4764385 25.82677
v 10 -11.268016 25.096949
v 0 -11.268016 25.096949
v 10 -13.003875 24.243025
v 0 -13.003875 24.243025
v 10 -14.67543 23.269222
v 0 -14.67543 23.269222
v 10 -16.27442 22.180357
v 0 -16.27442 22.180357
v 10 -17.792933 20.981813
v 0 -17.792933 20.981813
v 10 -19.223463 19.679518
v 0 -19.223463 19.679518
v 10 -20.558935 18.279911
v 0 -20.558935 18.279911
v 10 -21.792747 16.789911
v 0 -21.792747 16.789911
v 10 -22.918798 15.216888
v 0 -22.918798 15.216888
v 10 -23.931517 13.56862
v 0 -23.931517 13.56862
v 10 -24.8259 11.853256
v 0 -24.8259 11.853256
v 10 -25.59752 10.079281
v 0 -25.59752 10.079281
v 10 -26.242567 8.255464
v 0 -26.242567 8.255464
v 10 -26.757847 6.3908253
v 0 -26.757847 6.3908253
v 10 -27.140812 4.494585
v 0 -27.140812 4.494585
v 10 -27.38957 2.5761197
v 0 -27.38957 2.5761197
v 10 -27.502892 0.6449158
v 0 -27.502892 0.6449158
v 10 -27.480215 -1.2894771
v 0 -27.480215 -1.2894771
v 10 -27.321653 -3.2174938
v 0 -27.321653 -3.2174938
v 10 -27.027988 -5.1296005
v 0 -27.027988 -5.1296005
v 10 -26.600676 -7.0163417
v 0 -26.600676 -7.0163417
v 10 -26.041824 -8.868388
v 0 -26.041824 -8.868388
v 10 -25.354202 -10.676582
v 0 -25.354202 -10.676582
v 10 -24.541206 -12.431982
v 0 -24.541206 -12.431982
v 10 -23.606857 -14.125907
v 0 -23.606857 -14.125907
v 10 -22.555777 -15.749982
v 0 -22.555777 -15.749982
v 10 -21.39316 -17.296175
v 0 -21.39316 -17.296175
v 10 -20.124758 -18.756842
v 0 -20.124758 -18.756842
v 10 -18.756842 -20.124758
v 0 -18.756842 -20.124758
v 10 -17.296175 -21.39316
v 0 -17.296175 -21.39316
v 10 -15.749982 -22.555777
v 0 -15.749982 -22.555777
v 10 -14.125907 -23.606857
v 0 -14.125907 -23.606857
v 10 -12.431982 -24.541206
v 0 -12.431982 -24.541206
v 10 -10.676582 -25.354202
v 0 -10.676582 -25.354202
v 10 -8.868388 -26.041824
v 0 -8.868388 -26.041824
v 10 -7.0163417 -26.600676
v 0 -7.0163417 -26.600676
v 10 -5.1296005 -27.027988
v 0 -5.1296005 -27.027988
v 10 -3.2174938 -27.321653
v 0 -3.2174938 -27.321653
v 10 -1.2894771 -27.480215
v 0 -1.2894771 -27.480215
v 10 0.6449158 -27.502892
v 0 0.6449158 -27.502892
v 10 2.5761197 -27.38957
v 0 2.5761197 -27.38957
v 10 4.494585 -27.140812
v 0 4.494585 -27.140812
v 10 6.3908253 -26.757847
v 0 6.3908253 -26.757847
v 10 8.255464 -26.242567
v 0 8.255464 -26.242567
v 10 10.079281 -25.59752
v 0 10.079281 -25.59752
v 10 11.853256 -24.8259
v 0 11.853256 -24.8259
v 10 13.56862 -23.931517
v 0 13.56862 -23.931517
v 10 15.216888 -22.918798
v 0 15.216888 -22.918798
v 10 16.789911 -21.792747
v 0 16.789911 -21.792747
v 10 18.279911 -20.558935
v 0 18.279911 -20.558935
v 10 19.679518 -19.223463
v 0 19.679518 -19.223463
v 10 20.981813 -17.792933
v 0 20.981813 -17.792933
v 10 22.180357 -16.27442
v 0 22.180357 -16.27442
v 10 23.269222 -14.67543
v 0 23.269222 -14.67543
v 10 24.243025 -13.003875
v 0 24.243025 -13.003875
v 10 25.096949 -11.268016
v 0 25.096949 -11.268016
v 10 25.82677 -9.4764385
v 0 25.82677 -9.4764385
v 10 26.428885 -7.638002
v 0 26.428885 -7.638002
v 10 26.90031 -5.7617965
v 0 26.90031 -5.7617965
v 10 27.238718 -3.8570995
v 0 27.238718 -3.8570995
v 10 27.442434 -1.9333297
v 0 27.442434 -1.9333297
# 188 vertices

vn 0 -0.03414111 -0.999417
vn 0 -0.10226415 -0.9947573
vn 0 -0.16991039 -0.9854595
vn -1.0638426E-16 -0.16991039 -0.9854595
vn -1.4720234E-16 -0.23676442 -0.9715671
vn 2.1867876E-16 -0.23676442 -0.9715671
vn 1.774129E-16 -0.30251455 -0.9531448
vn 0 -0.30251455 -0.9531448
vn 0 -0.36685422 -0.9302784
vn 0 -0.42948344 -0.90307474
vn 0 -0.49011022 -0.8716605
vn 0 -0.5484519 -0.8361821
vn 0 -0.60423636 -0.7968051
vn -2.1276852E-16 -0.60423636 -0.7968051
vn -2.3348564E-16 -0.6572037 -0.753713
vn 0 -0.6572037 -0.753713
vn 0 -0.70710677 -0.70710677
vn 0 -0.753713 -0.6572037
vn -3.5461418E-17 -0.753713 -0.6572037
vn -6.8414156E-17 -0.7968051 -0.60423636
vn 0 -0.7968051 -0.60423636
vn 0 -0.8361821 -0.5484519
vn 0 -0.8716605 -0.49011022
vn 0 -0.90307474 -0.42948344
vn 8.2743313E-17 -0.90307474 -0.42948344
vn 6.51664E-17 -0.9302784 -0.36685422
vn 1.3002521E-16 -0.9302784 -0.36685422
vn 1.07474756E-16 -0.9531448 -0.30251455
vn -2.3640946E-16 -0.9531448 -0.30251455
vn -2.6105434E-16 -0.9715671 -0.23676442
vn 1.0047402E-16 -0.9715671 -0.23676442
vn 7.545537E-17 -0.9854595 -0.16991039
vn -3.5461418E-17 -0.9854595 -0.16991039
vn -1.8165761E-17 -0.9947573 -0.10226415
vn -1.1820473E-17 -0.9947573 -0.10226415
vn -3.0323397E-18 -0.999417 -0.03414111
vn 0 -0.999417 -0.03414111
vn 0 -1 -7.4902766E-17
vn 0 0 1
vn 0 1 0
vn 0 0 -1
vn 1 0 0
vn -1 0 0
vn 0 -0.035159834 0.9993817
vn 0 -0.10530564 0.9944399
vn 0 -0.17493072 0.98458076
vn 0 -0.2436908 0.969853
vn 0 -0.31124586 0.9503294
vn 0 -0.37726188 0.92610663
vn 0 -0.44141236 0.89730436
vn 0 -0.5033801 0.86406505
vn 0 -0.56285876 0.8265531
vn 0 -0.6195541 0.78495395
vn 0 -0.6731859 0.7394733
vn 0 -0.72348887 0.69033605
vn 0 -0.77021426 0.6377852
vn 0 -0.8131311 0.5820806
vn 0 -0.85202706 0.5234977
vn 0 -0.8867099 0.46232617
vn 0 -0.9170081 0.3988685
vn 0 -0.94277185 0.33343852
vn 0 -0.9638737 0.2663597
vn 0 -0.98020935 0.19796376
vn 0 -0.99169797 0.12858893
vn 0 -0.9982828 0.05857825
vn 0 -0.9999313 -0.0117220925
vn 0 -0.99663526 -0.08196447
vn 0 -0.988411 -0.15180154
vn 0 -0.9752992 -0.22088799
vn 0 -0.9573647 -0.28888217
vn 0 -0.93469614 -0.35544786
vn 0 -0.9074056 -0.42025593
vn 0 -0.8756281 -0.48298588
vn 0 -0.8395208 -0.54332757
vn 0 -0.79926217 -0.60098255
vn 0 -0.75505126 -0.65566576
vn 0 -0.65566576 -0.75505126
vn 0 -0.60098255 -0.79926217
vn 0 -0.54332757 -0.8395208
vn 0 -0.48298588 -0.8756281
vn 0 -0.42025593 -0.9074056
vn 0 -0.35544786 -0.93469614
vn 0 -0.28888217 -0.9573647
vn 0 -0.22088799 -0.9752992
vn 0 -0.15180154 -0.988411
vn 0 -0.08196447 -0.99663526
vn 0 -0.0117220925 -0.9999313
vn 0 0.05857825 -0.9982828
vn 0 0.12858893 -0.99169797
vn 0 0.19796376 -0.98020935
vn 0 0.2663597 -0.9638737
vn 0 0.33343852 -0.94277185
vn 0 0.3988685 -0.9170081
vn 0 0.46232617 -0.8867099
vn 0 0.5234977 -0.85202706
vn 0 0.5820806 -0.8131311
vn 0 0.6377852 -0.77021426
vn 0 0.69033605 -0.72348887
vn 0 0.7394733 -0.6731859
vn 0 0.78495395 -0.6195541
vn 0 0.8265531 -0.56285876
vn 0 0.86406505 -0.5033801
vn 0 0.89730436 -0.44141236
vn 0 0.92610663 -0.37726188
vn 0 0.9503294 -0.31124586
vn 0 0.969853 -0.2436908
vn 0 0.98458076 -0.17493072
vn 0 0.9944399 -0.10530564
vn 0 0.9993817 -0.035159834
vn 0 1 -6.123234E-17
# 110 vertex normals

s 1
f 1//1 2//1 3//1
f 3//1 2//1 4//1
f 3//2 4//2 5//2
f 3//2 5//2 6//2
f 6//3 5//3 7//3
f 6//4 7//4 8//4
f 8//5 7//5 9//5
f 8//6 9//6 10//6
f 10//7 9//7 11//7
f 10//8 11//8 12//8
f 12//9 11//9 13//9
f 12//9 13//9 14//9
f 14//10 13//10 15//10
f 14//10 15//10 16//10
f 16//11 15//11 17//11
f 16//11 17//11 18//11
f 18//12 17//12 19//12
f 18//12 19//12 20//12
f 20//13 19//13 21//13
f 20//14 21//14 22//14
f 22//15 21//15 23//15
f 22//16 23//16 24//16
f 24//17 23//17 25//17
f 24//17 25//17 26//17
f 26//18 25//18 27//18
f 26//19 27//19 28//19
f 28//20 27//20 29//20
f 28//21 29//21 30//21
f 30//22 29//22 31//22
f 30//22 31//22 32//22
f 32//23 31//23 33//23
f 32//23 33//23 34//23
f 34//24 33//24 35//24
f 34//25 35//25 36//25
f 36//26 35//26 37//26
f 36//27 37//27 38//27
f 38//28 37//28 39//28
f 38//29 39//29 40//29
f 40//30 39//30 41//30
f 40//31 41//31 42//31
f 42//32 41//32 43//32
f 42//33 43//33 44//33
f 44//34 43//34 45//34
f 44//35 45//35 46//35
f 46//36 45//36 47//36
f 47//37 45//37 48//37
f 49//38 2//38 50//38
f 50//38 2//38 1//38
f 51//39 49//39 52//39
f 52//39 49//39 50//39
f 53//40 51//40 54//40
f 54//40 51//40 52//40
f 48//41 53//41 47//41
f 47//41 53//41 54//41
f 47//42 54//42 46//42
f 46//42 54//42 44//42
f 44//42 54//42 42//42
f 42//42 54//42 40//42
f 40//42 54//42 38//42
f 38//42 54//42 36//42
f 36//42 54//42 34//42
f 34//42 54//42 52//42
f 34//42 52//42 32//42
f 32//42 52//42 30//42
f 30//42 52//42 28//42
f 28//42 52//42 26//42
f 26//42 52//42 24//42
f 24//42 52//42 22//42
f 22//42 52//42 20//42
f 20//42 52//42 18//42
f 18//42 52//42 16//42
f 16//42 52//42 50//42
f 16//42 50//42 14//42
f 14//42 50//42 12//42
f 12//42 50//42 10//42
f 10//42 50//42 8//42
f 8//42 50//42 6//42
f 6//42 50//42 3//42
f 3//42 50//42 1//42
f 48//43 45//43 53//43
f 53//43 45//43 43//43
f 53//43 43//43 41//43
f 41//43 39//43 53//43
f 53//43 39//43 37//43
f 53//43 37//43 35//43
f 35//43 33//43 53//43
f 53//43 33//43 51//43
f 51//43 33//43 31//43
f 51//43 31//43 29//43
f 29//43 27//43 51//43
f 51//43 27//43 25//43
f 51//43 25//43 23//43
f 23//43 21//43 51//43
f 51//43 21//43 19//43
f 51//43 19//43 17//43
f 17//43 15//43 51//43
f 51//43 15//43 49//43
f 49//43 15//43 13//43
f 49//43 13//43 11//43
f 11//43 9//43 49//43
f 49//43 9//43 7//43
f 49//43 7//43 5//43
f 5//43 4//43 49//43
f 49//43 4//43 2//43
f 48//39 55//39 47//39
f 47//39 55//39 56//39
f 1//44 2//44 57//44
f 57//44 2//44 58//44
f 57//45 58//45 59//45
f 59//45 58//45 60//45
f 59//46 60//46 61//46
f 61//46 60//46 62//46
f 61//47 62//47 63//47
f 63//47 62//47 64//47
f 63//48 64//48 65//48
f 65//48 64//48 66//48
f 65//49 66//49 67//49
f 67//49 66//49 68//49
f 67//50 68//50 69//50
f 69//50 68//50 70//50
f 69//51 70//51 71//51
f 71//51 70//51 72//51
f 71//52 72//52 73//52
f 73//52 72//52 74//52
f 73//53 74//53 75//53
f 75//53 74//53 76//53
f 75//54 76//54 77//54
f 77//54 76//54 78//54
f 77//55 78//55 79//55
f 79//55 78//55 80//55
f 79//56 80//56 81//56
f 81//56 80//56 82//56
f 81//57 82//57 83//57
f 83//57 82//57 84//57
f 83//58 84//58 85//58
f 85//58 84//58 86//58
f 85//59 86//59 87//59
f 87//59 86//59 88//59
f 87//60 88//60 89//60
f 89//60 88//60 90//60
f 89//61 90//61 91//61
f 91//61 90//61 92//61
f 91//62 92//62 93//62
f 93//62 92//62 94//62
f 93//63 94//63 95//63
f 95//63 94//63 96//63
f 95//64 96//64 97//64
f 97//64 96//64 98//64
f 97//65 98//65 99//65
f 99//65 98//65 100//65
f 99//66 100//66 101//66
f 101//66 100//66 102//66
f 101//67 102//67 103//67
f 103//67 102//67 104//67
f 103//68 104//68 105//68
f 105//68 104//68 106//68
f 105//69 106//69 107//69
f 107//69 106//69 108//69
f 107//70 108//70 109//70
f 109//70 108//70 110//70
f 109//71 110//71 111//71
f 111//71 110//71 112//71
f 111//72 112//72 113//72
f 113//72 112//72 114//72
f 113//73 114//73 115//73
f 115//73 114//73 116//73
f 115//74 116//74 117//74
f 117//74 116//74 118//74
f 117//75 118//75 119//75
f 119//75 118//75 120//75
f 119//76 120//76 121//76
f 121//76 120//76 122//76
f 121//17 122//17 123//17
f 123//17 122//17 124//17
f 123//77 124//77 125//77
f 125//77 124//77 126//77
f 125//78 126//78 127//78
f 127//78 126//78 128//78
f 127//79 128//79 129//79
f 129//79 128//79 130//79
f 129//80 130//80 131//80
f 131//80 130//80 132//80
f 131//81 132//81 133//81
f 133//81 132//81 134//81
f 133//82 134//82 135//82
f 135//82 134//82 136//82
f 135//83 136//83 137//83
f 137//83 136//83 138//83
f 137//84 138//84 139//84
f 139//84 138//84 140//84
f 139//85 140//85 141//85
f 141//85 140//85 142//85
f 141//86 142//86 143//86
f 143//86 142//86 144//86
f 143//87 144//87 145//87
f 145//87 144//87 146//87
f 145//88 146//88 147//88
f 147//88 146//88 148//88
f 147//89 148//89 149//89
f 149//89 148//89 150//89
f 149//90 150//90 151//90
f 151//90 150//90 152//90
f 151//91 152//91 153//91
f 153//91 152//91 154//91
f 153//92 154//92 155//92
f 155//92 154//92 156//92
f 155//93 156//93 157//93
f 157//93 156//93 158//93
f 157//94 158//94 159//94
f 159//94 158//94 160//94
f 159//95 160//95 161//95
f 161//95 160//95 162//95
f 161//96 162//96 163//96
f 163//96 162//96 164//96
f 163//97 164//97 165//97
f 165//97 164//97 166//97
f 165//98 166//98 167//98
f 167//98 166//98 168//98
f 167//99 168//99 169//99
f 169//99 168//99 170//99
f 169//100 170//100 171//100
f 171//100 170//100 172//100
f 171//101 172//101 173//101
f 173//101 172//101 174//101
f 173//102 174//102 175//102
f 175//102 174//102 176//102
f 175//103 176//103 177//103
f 177//103 176//103 178//103
f 177//104 178//104 179//104
f 179//104 178//104 180//104
f 179//105 180//105 181//105
f 181//105 180//105 182//105
f 181//106 182//106 183//106
f 183//106 182//106 184//106
f 183//107 184//107 185//107
f 185//107 184//107 186//107
f 185//108 186//108 187//108
f 187//108 186//108 188//108
f 187//109 188//109 47//109
f 47//109 188//109 48//109
f 55//110 2//110 56//110
f 56//110 2//110 1//110
f 1//42 57//42 56//42
f 56//42 57//42 59//42
f 56//42 59//42 61//42
f 61//42 63//42 56//42
f 56//42 63//42 65//42
f 56//42 65//42 67//42
f 67//42 69//42 56//42
f 56//42 69//42 71//42
f 56//42 71//42 73//42
f 73//42 75//42 56//42
f 56//42 75//42 77//42
f 56//42 77//42 79//42
f 79//42 81//42 56//42
f 56//42 81//42 83//42
f 56//42 83//42 85//42
f 85//42 87//42 56//42
f 56//42 87//42 89//42
f 56//42 89//42 91//42
f 91//42 93//42 56//42
f 56//42 93//42 95//42
f 56//42 95//42 97//42
f 97//42 99//42 56//42
f 56//42 99//42 101//42
f 56//42 101//42 103//42
f 103//42 105//42 56//42
f 56//42 105//42 107//42
f 56//42 107//42 109//42
f 109//42 111//42 56//42
f 56//42 111//42 113//42
f 56//42 113//42 115//42
f 115//42 117//42 56//42
f 56//42 117//42 119//42
f 56//42 119//42 121//42
f 121//42 123//42 56//42
f 56//42 123//42 125//42
f 56//42 125//42 127//42
f 127//42 129//42 56//42
f 56//42 129//42 131//42
f 56//42 131//42 133//42
f 133//42 135//42 56//42
f 56//42 135//42 137//42
f 56//42 137//42 139//42
f 139//42 141//42 56//42
f 56//42 141//42 143//42
f 56//42 143//42 145//42
f 145//42 147//42 56//42
f 56//42 147//42 149//42
f 56//42 149//42 151//42
f 151//42 153//42 56//42
f 56//42 153//42 155//42
f 56//42 155//42 157//42
f 157//42 159//42 56//42
f 56//42 159//42 161//42
f 56//42 161//42 163//42
f 163//42 165//42 56//42
f 56//42 165//42 167//42
f 56//42 167//42 169//42
f 169//42 171//42 56//42
f 56//42 171//42 173//42
f 56//42 173//42 175//42
f 175//42 177//42 56//42
f 56//42 177//42 179//42
f 56//42 179//42 181//42
f 181//42 183//42 56//42
f 56//42 183//42 185//42
f 56//42 185//42 187//42
f 187//42 47//42 56//42
f 2//43 55//43 58//43
f 58//43 55//43 60//43
f 60//43 55//43 62//43
f 62//43 55//43 64//43
f 64//43 55//43 66//43
f 66//43 55//43 68//43
f 68//43 55//43 70//43
f 70//43 55//43 72//43
f 72//43 55//43 74//43
f 74//43 55//43 76//43
f 76//43 55//43 78//43
f 78//43 55//43 80//43
f 80//43 55//43 82//43
f 82//43 55//43 84//43
f 84//43 55//43 86//43
f 86//43 55//43 88//43
f 88//43 55//43 90//43
f 90//43 55//43 92//43
f 92//43 55//43 94//43
f 94//43 55//43 96//43
f 96//43 55//43 98//43
f 98//43 55//43 100//43
f 100//43 55//43 102//43
f 102//43 55//43 104//43
f 104//43 55//43 106//43
f 106//43 55//43 108//43
f 108//43 55//43 110//43
f 110//43 55//43 112//43
f 112//43 55//43 114//43
f 114//43 55//43 116//43
f 116//43 55//43 118//43
f 118//43 55//43 120//43
f 120//43 55//43 122//43
f 122//43 55//43 124//43
f 124//43 55//43 126//43
f 126//43 55//43 128//43
f 128//43 55//43 130//43
f 130//43 55//43 132//43
f 132//43 55//43 134//43
f 134//43 55//43 136//43
f 136//43 55//43 138//43
f 138//43 55//43 140//43
f 140//43 55//43 142//43
f 142//43 55//43 144//43
f 144//43 55//43 146//43
f 146//43 55//43 148//43
f 148//43 55//43 150//43
f 150//43 55//43 152//43
f 152//43 55//43 154//43
f 154//43 55//43 156//43
f 156//43 55//43 158//43
f 158//43 55//43 160//43
f 160//43 55//43 162//43
f 162//43 55//43 164//43
f 164//43 55//43 166//43
f 166//43 55//43 168//43
f 168//43 55//43 170//43
f 170//43 55//43 172//43
f 172//43 55//43 174//43
f 174//43 55//43 176//43
f 176//43 55//43 178//43
f 178//43 55//43 180//43
f 180//43 55//43 182//43
f 182//43 55//43 184//43
f 184//43 55//43 186//43
f 186//43 55//43 188//43
f 188//43 55//43 48//43
#376 polygons

