# Aspose.3D Wavefront OBJ Exporter
# Copyright 2004-2024 Aspose Pty Ltd.
# File created: 03/05/2024 15:29:50

g obj_40861429

#
# object obj_40861429
#

v 0 27.510452 0
v 0 0 0
v 10 27.510452 0
v 10 0 0
v 10 1.6845294E-15 27.510452
v 0 1.6845294E-15 27.510452
v 10 -1.6400391 27.461523
v 0 -1.6400391 27.461523
v 10 -3.2742443 27.314909
v 0 -3.2742443 27.314909
v 10 -4.8968024 27.071135
v 0 -4.8968024 27.071135
v 10 -6.501942 26.731062
v 0 -6.501942 26.731062
v 10 -8.083954 26.295906
v 0 -8.083954 26.295906
v 10 -9.63721 25.767212
v 0 -9.63721 25.767212
v 10 -11.156185 25.146858
v 0 -11.156185 25.146858
v 10 -12.635476 24.437056
v 0 -12.635476 24.437056
v 10 -14.069821 23.640327
v 0 -14.069821 23.640327
v 10 -15.454119 22.759508
v 0 -15.454119 22.759508
v 10 -16.783443 21.79773
v 0 -16.783443 21.79773
v 10 -18.053066 20.758413
v 0 -18.053066 20.758413
v 10 -19.258474 19.645258
v 0 -19.258474 19.645258
v 10 -20.395376 18.462221
v 0 -20.395376 18.462221
v 10 -21.459728 17.213512
v 0 -21.459728 17.213512
v 10 -22.447748 15.903572
v 0 -22.447748 15.903572
v 10 -23.355917 14.537062
v 0 -23.355917 14.537062
v 10 -24.181005 13.11884
v 0 -24.181005 13.11884
v 10 -24.920078 11.6539545
v 0 -24.920078 11.6539545
v 10 -25.570509 10.147614
v 0 -25.570509 10.147614
v 10 -26.129982 8.605176
v 0 -26.129982 8.605176
v 10 -26.596506 7.0321293
v 0 -26.596506 7.0321293
v 10 -26.968424 5.434068
v 0 -26.968424 5.434068
v 10 -27.244411 3.816677
v 0 -27.244411 3.816677
v 10 -27.423487 2.18571
v 0 -27.423487 2.18571
v 10 -27.505014 0.546968
v 0 -27.505014 0.546968
v 10 -27.488703 -1.0937197
v 0 -27.488703 -1.0937197
v 10 -27.374609 -2.730517
v 0 -27.374609 -2.730517
v 10 -27.163141 -4.357601
v 0 -27.163141 -4.357601
v 10 -26.855051 -5.969185
v 0 -26.855051 -5.969185
v 10 -26.451435 -7.559536
v 0 -26.451435 -7.559536
v 10 -25.953726 -9.122996
v 0 -25.953726 -9.122996
v 10 -25.363697 -10.654005
v 0 -25.363697 -10.654005
v 10 -24.683447 -12.147117
v 0 -24.683447 -12.147117
v 10 -23.915394 -13.597018
v 0 -23.915394 -13.597018
v 10 -23.062271 -14.998554
v 0 -23.062271 -14.998554
v 10 -22.127111 -16.346739
v 0 -22.127111 -16.346739
v 10 -21.113245 -17.636776
v 0 -21.113245 -17.636776
v 10 -20.024275 -18.864077
v 0 -20.024275 -18.864077
v 10 -18.864077 -20.024275
v 0 -18.864077 -20.024275
v 10 -17.636776 -21.113245
v 0 -17.636776 -21.113245
v 10 -16.346739 -22.127111
v 0 -16.346739 -22.127111
v 10 -14.998554 -23.062271
v 0 -14.998554 -23.062271
v 10 -13.597018 -23.915394
v 0 -13.597018 -23.915394
v 10 -12.147117 -24.683447
v 0 -12.147117 -24.683447
v 10 -10.654005 -25.363697
v 0 -10.654005 -25.363697
v 10 -9.122996 -25.953726
v 0 -9.122996 -25.953726
v 10 -7.559536 -26.451435
v 0 -7.559536 -26.451435
v 10 -5.969185 -26.855051
v 0 -5.969185 -26.855051
v 10 -4.357601 -27.163141
v 0 -4.357601 -27.163141
v 10 -2.730517 -27.374609
v 0 -2.730517 -27.374609
v 10 -1.0937197 -27.488703
v 0 -1.0937197 -27.488703
v 10 0.546968 -27.505014
v 0 0.546968 -27.505014
v 10 2.18571 -27.423487
v 0 2.18571 -27.423487
v 10 3.816677 -27.244411
v 0 3.816677 -27.244411
v 10 5.434068 -26.968424
v 0 5.434068 -26.968424
v 10 7.0321293 -26.596506
v 0 7.0321293 -26.596506
v 10 8.605176 -26.129982
v 0 8.605176 -26.129982
v 10 10.147614 -25.570509
v 0 10.147614 -25.570509
v 10 11.6539545 -24.920078
v 0 11.6539545 -24.920078
v 10 13.11884 -24.181005
v 0 13.11884 -24.181005
v 10 14.537062 -23.355917
v 0 14.537062 -23.355917
v 10 15.903572 -22.447748
v 0 15.903572 -22.447748
v 10 17.213512 -21.459728
v 0 17.213512 -21.459728
v 10 18.462221 -20.395376
v 0 18.462221 -20.395376
v 10 19.645258 -19.258474
v 0 19.645258 -19.258474
v 10 20.758413 -18.053066
v 0 20.758413 -18.053066
v 10 21.79773 -16.783443
v 0 21.79773 -16.783443
v 10 22.759508 -15.454119
v 0 22.759508 -15.454119
v 10 23.640327 -14.069821
v 0 23.640327 -14.069821
v 10 24.437056 -12.635476
v 0 24.437056 -12.635476
v 10 25.146858 -11.156185
v 0 25.146858 -11.156185
v 10 25.767212 -9.63721
v 0 25.767212 -9.63721
v 10 26.295906 -8.083954
v 0 26.295906 -8.083954
v 10 26.731062 -6.501942
v 0 26.731062 -6.501942
v 10 27.071135 -4.8968024
v 0 27.071135 -4.8968024
v 10 27.314909 -3.2742443
v 0 27.314909 -3.2742443
v 10 27.461523 -1.6400391
v 0 27.461523 -1.6400391
# 162 vertices

vn 0 0 1
vn 0 -0.029820826 0.9995553
vn 0 -0.0893564 0.9959997
vn 0 -0.14857411 0.98890126
vn 0 -0.20726335 0.9782852
vn 0 -0.2652153 0.96418923
vn 0 -0.32222387 0.9466635
vn 0 -0.37808624 0.9257704
vn 0 -0.4326037 0.9015842
vn 0 -0.48558235 0.8741909
vn 0 -0.5368337 0.8436881
vn 0 -0.5861755 0.8101841
vn 0 -0.63343215 0.7737982
vn 0 -0.6784356 0.73465985
vn 0 -0.7210258 0.69290817
vn 0 -0.76105124 0.6486918
vn 0 -0.7983695 0.60216784
vn 0 -0.8328479 0.55350196
vn 0 -0.8643637 0.50286716
vn 0 -0.89280486 0.45044366
vn 0 -0.9180702 0.39641783
vn 0 -0.94006985 0.3409819
vn 0 -0.9587256 0.28433308
vn 0 -0.97397095 0.22667283
vn 0 -0.9857518 0.16820627
vn 0 -0.99402624 0.10914139
vn 0 -0.99876475 0.049688276
vn 0 -0.9999506 -0.009941585
vn 0 -0.99757946 -0.06953608
vn 0 -0.99165976 -0.12888323
vn 0 -0.98221266 -0.18777193
vn 0 -0.96927166 -0.24599269
vn 0 -0.9528829 -0.30333844
vn 0 -0.9331046 -0.35960516
vn 0 -0.91000706 -0.4145927
vn 0 -0.8836726 -0.46810552
vn 0 -0.85419476 -0.51995325
vn 0 -0.8216784 -0.56995136
vn 0 -0.78623927 -0.6179221
vn 0 -0.7480034 -0.66369486
vn 0 -0.70710677 -0.70710677
vn 0 -0.66369486 -0.7480034
vn 0 -0.6179221 -0.78623927
vn 0 -0.56995136 -0.8216784
vn 0 -0.51995325 -0.85419476
vn 0 -0.46810552 -0.8836726
vn 0 -0.4145927 -0.91000706
vn 0 -0.35960516 -0.9331046
vn 0 -0.30333844 -0.9528829
vn 0 -0.24599269 -0.96927166
vn 0 -0.18777193 -0.98221266
vn 0 -0.12888323 -0.99165976
vn 0 -0.06953608 -0.99757946
vn 0 -0.009941585 -0.9999506
vn 0 0.049688276 -0.99876475
vn 0 0.10914139 -0.99402624
vn 0 0.16820627 -0.9857518
vn 0 0.22667283 -0.97397095
vn 0 0.28433308 -0.9587256
vn 0 0.3409819 -0.94006985
vn 0 0.39641783 -0.9180702
vn 0 0.45044366 -0.89280486
vn 0 0.50286716 -0.8643637
vn 0 0.55350196 -0.8328479
vn 0 0.60216784 -0.7983695
vn 0 0.6486918 -0.76105124
vn 0 0.69290817 -0.7210258
vn 0 0.73465985 -0.6784356
vn 0 0.7737982 -0.63343215
vn 0 0.8101841 -0.5861755
vn 0 0.8436881 -0.5368337
vn 0 0.8741909 -0.48558235
vn 0 0.9015842 -0.4326037
vn 0 0.9257704 -0.37808624
vn 0 0.9466635 -0.32222387
vn 0 0.96418923 -0.2652153
vn 0 0.9782852 -0.20726335
vn 0 0.98890126 -0.14857411
vn 0 0.9959997 -0.0893564
vn 0 0.9995553 -0.029820826
vn 0 1 -6.123234E-17
vn 1 0 0
vn -1 0 0
# 83 vertex normals

s 1
f 1//1 2//1 3//1
f 3//1 2//1 4//1
f 5//2 6//2 7//2
f 7//2 6//2 8//2
f 7//3 8//3 9//3
f 9//3 8//3 10//3
f 9//4 10//4 11//4
f 11//4 10//4 12//4
f 11//5 12//5 13//5
f 13//5 12//5 14//5
f 13//6 14//6 15//6
f 15//6 14//6 16//6
f 15//7 16//7 17//7
f 17//7 16//7 18//7
f 17//8 18//8 19//8
f 19//8 18//8 20//8
f 19//9 20//9 21//9
f 21//9 20//9 22//9
f 21//10 22//10 23//10
f 23//10 22//10 24//10
f 23//11 24//11 25//11
f 25//11 24//11 26//11
f 25//12 26//12 27//12
f 27//12 26//12 28//12
f 27//13 28//13 29//13
f 29//13 28//13 30//13
f 29//14 30//14 31//14
f 31//14 30//14 32//14
f 31//15 32//15 33//15
f 33//15 32//15 34//15
f 33//16 34//16 35//16
f 35//16 34//16 36//16
f 35//17 36//17 37//17
f 37//17 36//17 38//17
f 37//18 38//18 39//18
f 39//18 38//18 40//18
f 39//19 40//19 41//19
f 41//19 40//19 42//19
f 41//20 42//20 43//20
f 43//20 42//20 44//20
f 43//21 44//21 45//21
f 45//21 44//21 46//21
f 45//22 46//22 47//22
f 47//22 46//22 48//22
f 47//23 48//23 49//23
f 49//23 48//23 50//23
f 49//24 50//24 51//24
f 51//24 50//24 52//24
f 51//25 52//25 53//25
f 53//25 52//25 54//25
f 53//26 54//26 55//26
f 55//26 54//26 56//26
f 55//27 56//27 57//27
f 57//27 56//27 58//27
f 57//28 58//28 59//28
f 59//28 58//28 60//28
f 59//29 60//29 61//29
f 61//29 60//29 62//29
f 61//30 62//30 63//30
f 63//30 62//30 64//30
f 63//31 64//31 65//31
f 65//31 64//31 66//31
f 65//32 66//32 67//32
f 67//32 66//32 68//32
f 67//33 68//33 69//33
f 69//33 68//33 70//33
f 69//34 70//34 71//34
f 71//34 70//34 72//34
f 71//35 72//35 73//35
f 73//35 72//35 74//35
f 73//36 74//36 75//36
f 75//36 74//36 76//36
f 75//37 76//37 77//37
f 77//37 76//37 78//37
f 77//38 78//38 79//38
f 79//38 78//38 80//38
f 79//39 80//39 81//39
f 81//39 80//39 82//39
f 81//40 82//40 83//40
f 83//40 82//40 84//40
f 83//41 84//41 85//41
f 85//41 84//41 86//41
f 85//42 86//42 87//42
f 87//42 86//42 88//42
f 87//43 88//43 89//43
f 89//43 88//43 90//43
f 89//44 90//44 91//44
f 91//44 90//44 92//44
f 91//45 92//45 93//45
f 93//45 92//45 94//45
f 93//46 94//46 95//46
f 95//46 94//46 96//46
f 95//47 96//47 97//47
f 97//47 96//47 98//47
f 97//48 98//48 99//48
f 99//48 98//48 100//48
f 99//49 100//49 101//49
f 101//49 100//49 102//49
f 101//50 102//50 103//50
f 103//50 102//50 104//50
f 103//51 104//51 105//51
f 105//51 104//51 106//51
f 105//52 106//52 107//52
f 107//52 106//52 108//52
f 107//53 108//53 109//53
f 109//53 108//53 110//53
f 109//54 110//54 111//54
f 111//54 110//54 112//54
f 111//55 112//55 113//55
f 113//55 112//55 114//55
f 113//56 114//56 115//56
f 115//56 114//56 116//56
f 115//57 116//57 117//57
f 117//57 116//57 118//57
f 117//58 118//58 119//58
f 119//58 118//58 120//58
f 119//59 120//59 121//59
f 121//59 120//59 122//59
f 121//60 122//60 123//60
f 123//60 122//60 124//60
f 123//61 124//61 125//61
f 125//61 124//61 126//61
f 125//62 126//62 127//62
f 127//62 126//62 128//62
f 127//63 128//63 129//63
f 129//63 128//63 130//63
f 129//64 130//64 131//64
f 131//64 130//64 132//64
f 131//65 132//65 133//65
f 133//65 132//65 134//65
f 133//66 134//66 135//66
f 135//66 134//66 136//66
f 135//67 136//67 137//67
f 137//67 136//67 138//67
f 137//68 138//68 139//68
f 139//68 138//68 140//68
f 139//69 140//69 141//69
f 141//69 140//69 142//69
f 141//70 142//70 143//70
f 143//70 142//70 144//70
f 143//71 144//71 145//71
f 145//71 144//71 146//71
f 145//72 146//72 147//72
f 147//72 146//72 148//72
f 147//73 148//73 149//73
f 149//73 148//73 150//73
f 149//74 150//74 151//74
f 151//74 150//74 152//74
f 151//75 152//75 153//75
f 153//75 152//75 154//75
f 153//76 154//76 155//76
f 155//76 154//76 156//76
f 155//77 156//77 157//77
f 157//77 156//77 158//77
f 157//78 158//78 159//78
f 159//78 158//78 160//78
f 159//79 160//79 161//79
f 161//79 160//79 162//79
f 161//80 162//80 3//80
f 3//80 162//80 1//80
f 2//81 6//81 4//81
f 4//81 6//81 5//81
f 5//82 7//82 4//82
f 4//82 7//82 9//82
f 4//82 9//82 11//82
f 11//82 13//82 4//82
f 4//82 13//82 15//82
f 4//82 15//82 17//82
f 17//82 19//82 4//82
f 4//82 19//82 21//82
f 4//82 21//82 23//82
f 23//82 25//82 4//82
f 4//82 25//82 27//82
f 4//82 27//82 29//82
f 29//82 31//82 4//82
f 4//82 31//82 33//82
f 4//82 33//82 35//82
f 35//82 37//82 4//82
f 4//82 37//82 39//82
f 4//82 39//82 41//82
f 41//82 43//82 4//82
f 4//82 43//82 45//82
f 4//82 45//82 47//82
f 47//82 49//82 4//82
f 4//82 49//82 51//82
f 4//82 51//82 53//82
f 53//82 55//82 4//82
f 4//82 55//82 57//82
f 4//82 57//82 59//82
f 59//82 61//82 4//82
f 4//82 61//82 63//82
f 4//82 63//82 65//82
f 65//82 67//82 4//82
f 4//82 67//82 69//82
f 4//82 69//82 71//82
f 71//82 73//82 4//82
f 4//82 73//82 75//82
f 4//82 75//82 77//82
f 77//82 79//82 4//82
f 4//82 79//82 81//82
f 4//82 81//82 83//82
f 83//82 85//82 4//82
f 4//82 85//82 87//82
f 4//82 87//82 89//82
f 89//82 91//82 4//82
f 4//82 91//82 93//82
f 4//82 93//82 95//82
f 95//82 97//82 4//82
f 4//82 97//82 99//82
f 4//82 99//82 101//82
f 101//82 103//82 4//82
f 4//82 103//82 105//82
f 4//82 105//82 107//82
f 107//82 109//82 4//82
f 4//82 109//82 111//82
f 4//82 111//82 113//82
f 113//82 115//82 4//82
f 4//82 115//82 117//82
f 4//82 117//82 119//82
f 119//82 121//82 4//82
f 4//82 121//82 123//82
f 4//82 123//82 125//82
f 125//82 127//82 4//82
f 4//82 127//82 129//82
f 4//82 129//82 131//82
f 131//82 133//82 4//82
f 4//82 133//82 135//82
f 4//82 135//82 137//82
f 137//82 139//82 4//82
f 4//82 139//82 141//82
f 4//82 141//82 143//82
f 143//82 145//82 4//82
f 4//82 145//82 147//82
f 4//82 147//82 149//82
f 149//82 151//82 4//82
f 4//82 151//82 153//82
f 4//82 153//82 155//82
f 155//82 157//82 4//82
f 4//82 157//82 159//82
f 4//82 159//82 161//82
f 161//82 3//82 4//82
f 6//83 2//83 8//83
f 8//83 2//83 10//83
f 10//83 2//83 12//83
f 12//83 2//83 14//83
f 14//83 2//83 16//83
f 16//83 2//83 18//83
f 18//83 2//83 20//83
f 20//83 2//83 22//83
f 22//83 2//83 24//83
f 24//83 2//83 26//83
f 26//83 2//83 28//83
f 28//83 2//83 30//83
f 30//83 2//83 32//83
f 32//83 2//83 34//83
f 34//83 2//83 36//83
f 36//83 2//83 38//83
f 38//83 2//83 40//83
f 40//83 2//83 42//83
f 42//83 2//83 44//83
f 44//83 2//83 46//83
f 46//83 2//83 48//83
f 48//83 2//83 50//83
f 50//83 2//83 52//83
f 52//83 2//83 54//83
f 54//83 2//83 56//83
f 56//83 2//83 58//83
f 58//83 2//83 60//83
f 60//83 2//83 62//83
f 62//83 2//83 64//83
f 64//83 2//83 66//83
f 66//83 2//83 68//83
f 68//83 2//83 70//83
f 70//83 2//83 72//83
f 72//83 2//83 74//83
f 74//83 2//83 76//83
f 76//83 2//83 78//83
f 78//83 2//83 80//83
f 80//83 2//83 82//83
f 82//83 2//83 84//83
f 84//83 2//83 86//83
f 86//83 2//83 88//83
f 88//83 2//83 90//83
f 90//83 2//83 92//83
f 92//83 2//83 94//83
f 94//83 2//83 96//83
f 96//83 2//83 98//83
f 98//83 2//83 100//83
f 100//83 2//83 102//83
f 102//83 2//83 104//83
f 104//83 2//83 106//83
f 106//83 2//83 108//83
f 108//83 2//83 110//83
f 110//83 2//83 112//83
f 112//83 2//83 114//83
f 114//83 2//83 116//83
f 116//83 2//83 118//83
f 118//83 2//83 120//83
f 120//83 2//83 122//83
f 122//83 2//83 124//83
f 124//83 2//83 126//83
f 126//83 2//83 128//83
f 128//83 2//83 130//83
f 130//83 2//83 132//83
f 132//83 2//83 134//83
f 134//83 2//83 136//83
f 136//83 2//83 138//83
f 138//83 2//83 140//83
f 140//83 2//83 142//83
f 142//83 2//83 144//83
f 144//83 2//83 146//83
f 146//83 2//83 148//83
f 148//83 2//83 150//83
f 150//83 2//83 152//83
f 152//83 2//83 154//83
f 154//83 2//83 156//83
f 156//83 2//83 158//83
f 158//83 2//83 160//83
f 160//83 2//83 162//83
f 162//83 2//83 1//83
#320 polygons

